<svg xmlns="http://www.w3.org/2000/svg" viewBox="0 0 73.04 73.05"><path d="M37.08,4.42V0c.89,1,1.36,1.46,2.07,2.36Z" style="fill:#c40d3c"/><path d="M37.08,12.11V6L39.9,3.2c.78,1.1,1.84,2.7,2.4,3.7Z" style="fill:#c40d3c"/><path d="M37.08,21.4,44.51,14c.34,7.78-6.83,11.62-7.43,11.91Z" style="fill:#c40d3c"/><path d="M37.08,19.8V13.7L42.81,8a16.82,16.82,0,0,1,1.5,4.6Z" style="fill:#c40d3c"/><path d="M36,4.42V0c-.89,1-1.35,1.46-2.06,2.36Z" style="fill:#c40d3c"/><path d="M36,12.11V6L33.14,3.2c-.78,1.1-1.84,2.7-2.39,3.7Z" style="fill:#c40d3c"/><path d="M36,21.4,28.53,14c-.34,7.78,6.83,11.62,7.43,11.91Z" style="fill:#c40d3c"/><path d="M36,19.8V13.7L30.24,8a16.82,16.82,0,0,0-1.5,4.6Z" style="fill:#c40d3c"/><path d="M37.08,4.42V0c.89,1,1.36,1.46,2.07,2.36Z" style="fill:#2c2c2c"/><path d="M37.08,12.11V6L39.9,3.2c.78,1.1,1.84,2.7,2.4,3.7Z" style="fill:#2c2c2c"/><path d="M37.08,21.4,44.51,14c.34,7.78-6.83,11.62-7.43,11.91Z" style="fill:#2c2c2c"/><path d="M37.08,19.8V13.7L42.81,8a16.82,16.82,0,0,1,1.5,4.6Z" style="fill:#2c2c2c"/><path d="M36,4.42V0c-.89,1-1.35,1.46-2.06,2.36Z" style="fill:#2c2c2c"/><path d="M36,12.11V6L33.14,3.2c-.78,1.1-1.84,2.7-2.39,3.7Z" style="fill:#2c2c2c"/><path d="M36,21.4,28.53,14c-.34,7.78,6.83,11.62,7.43,11.91Z" style="fill:#2c2c2c"/><path d="M36,19.8V13.7L30.24,8a16.82,16.82,0,0,0-1.5,4.6Z" style="fill:#2c2c2c"/><path d="M68.63,37.08H73c-1,.89-1.45,1.36-2.36,2.07Z" style="fill:#2c2c2c"/><path d="M60.94,37.08H67l2.81,2.82c-1.1.78-2.7,1.84-3.7,2.4Z" style="fill:#2c2c2c"/><path d="M51.64,37.08l7.45,7.43c-7.79.34-11.63-6.83-11.92-7.43Z" style="fill:#2c2c2c"/><path d="M53.24,37.08h6.1l5.73,5.73a17.59,17.59,0,0,1-4.61,1.5Z" style="fill:#2c2c2c"/><path d="M68.63,36H73c-1-.89-1.45-1.35-2.36-2.06Z" style="fill:#2c2c2c"/><path d="M60.94,36H67l2.81-2.82c-1.1-.78-2.7-1.84-3.7-2.39Z" style="fill:#2c2c2c"/><path d="M51.64,36l7.45-7.43C51.3,28.19,47.46,35.36,47.17,36Z" style="fill:#2c2c2c"/><path d="M53.24,36h6.1l5.73-5.72a16.88,16.88,0,0,0-4.61-1.5Z" style="fill:#2c2c2c"/><path d="M36,68.63v4.42c-.89-1-1.35-1.46-2.06-2.36Z" style="fill:#2c2c2c"/><path d="M36,60.94V67l-2.82,2.81c-.78-1.1-1.84-2.7-2.39-3.7Z" style="fill:#2c2c2c"/><path d="M36,51.64l-7.43,7.45C28.19,51.3,35.36,47.46,36,47.17Z" style="fill:#2c2c2c"/><path d="M36,53.24v6.1l-5.72,5.73a16.88,16.88,0,0,1-1.5-4.61Z" style="fill:#2c2c2c"/><path d="M37.08,68.63v4.42c.89-1,1.36-1.46,2.07-2.36Z" style="fill:#2c2c2c"/><path d="M37.08,60.94V67l2.82,2.81c.78-1.1,1.84-2.7,2.4-3.7Z" style="fill:#2c2c2c"/><path d="M37.08,51.64l7.43,7.45c.34-7.79-6.83-11.63-7.43-11.92Z" style="fill:#2c2c2c"/><path d="M37.08,53.24v6.1l5.73,5.73a16.88,16.88,0,0,0,1.5-4.61Z" style="fill:#2c2c2c"/><path d="M4.42,36H0c1-.89,1.46-1.35,2.36-2.06Z" style="fill:#2c2c2c"/><path d="M12.11,36H6L3.2,33.14c1.1-.78,2.7-1.84,3.7-2.39Z" style="fill:#2c2c2c"/><path d="M21.4,36,14,28.53c7.78-.34,11.62,6.83,11.91,7.43Z" style="fill:#2c2c2c"/><path d="M19.8,36H13.7L8,30.24a16.82,16.82,0,0,1,4.6-1.5Z" style="fill:#2c2c2c"/><path d="M4.42,37.08H0c1,.89,1.46,1.36,2.36,2.07Z" style="fill:#2c2c2c"/><path d="M12.11,37.08H6L3.2,39.9c1.1.78,2.7,1.84,3.7,2.4Z" style="fill:#2c2c2c"/><path d="M21.4,37.08,14,44.51c7.78.34,11.62-6.83,11.91-7.43Z" style="fill:#2c2c2c"/><path d="M19.8,37.08H13.7L8,42.81a17.53,17.53,0,0,0,4.6,1.5Z" style="fill:#2c2c2c"/><path d="M43.85,30c7,9.92-3.92,20.8-13.84,13.84A3.46,3.46,0,0,1,29.2,43c-7-9.93,3.91-20.81,13.84-13.84a3.46,3.46,0,0,1,.81.81" style="fill:#c40d3c"/></svg>